<?xml version="1.0" encoding="UTF-8" standalone="no" ?>
<!DOCTYPE svg PUBLIC "-//W3C//DTD SVG 1.1//EN" "http://www.w3.org/Graphics/SVG/1.1/DTD/svg11.dtd">
<svg xmlns="http://www.w3.org/2000/svg" xmlns:xlink="http://www.w3.org/1999/xlink" version="1.1" width="441" height="83" viewBox="0 0 441 83" xml:space="preserve">
<desc>Created with Fabric.js 3.6.6</desc>
<defs>
</defs>
<g transform="matrix(0.29 0 0 0.29 42.98 41.43)" id="Calque_1"  >
<path style="stroke: rgb(255,255,255); stroke-opacity: 0; stroke-width: 1; stroke-dasharray: none; stroke-linecap: butt; stroke-dashoffset: 0; stroke-linejoin: miter; stroke-miterlimit: 4; fill: rgb(255,255,255); fill-rule: evenodd; opacity: 1;"  transform=" translate(-180.32, -180.34)" d="M 275.97 181.36 c 8.56 1.86 13.66 10.69 10.99 19.03 C 278.4 198.53 273.3 189.7 275.97 181.36 M 298.89 176.75 c 12.34 -1.35 21.79 -11.88 21.79 -24.31 v -22.43 c 0 -3.35 2.71 -6.06 6.06 -6.06 v -6.63 c -10.9 0 -17.85 11.06 -28.18 0.97 c -13.05 -13.06 -21.15 -0.97 -32.86 -0.97 v 6.63 c 3.35 0 6.06 2.71 6.06 6.06 v 22.43 c 0 12.15 9.04 22.52 21.04 24.21 c -0.19 4.48 -0.61 8.98 -1.29 13.5 c -8.39 56.11 -53.23 99.85 -109.56 106.71 c -1.67 0.2 -2.86 1.71 -2.66 3.38 c 0.2 1.67 1.71 2.86 3.38 2.66 c 59.05 -7.19 106.07 -53.05 114.86 -111.87 C 298.25 186.26 298.7 181.49 298.89 176.75 z M 219.49 205.92 c 3.15 -5.78 -5.17 -10.17 -7.89 -3.38 c -6.04 -5.31 -8.97 8.97 -23.46 15.4 c 10.31 2.18 25.22 0.8 29.98 -3.21 c 2.68 -2.09 3.26 -5.42 1.24 -7.34 c -3 2.05 -9.09 6.07 -23.6 8.84 C 210.03 213.42 217.97 207.67 219.49 205.92 z M 273.13 103.6 c 1.98 -0.72 3.94 -1.42 5.95 -1.95 c -16.19 -26.07 -41.39 -46.54 -72.5 -56.39 c -61.99 -19.64 -129.13 8.71 -158.31 66.83 c -2.32 4.62 -4.35 9.3 -6.1 14.04 c -8.16 20.71 -10.16 45.61 -6.55 67.45 c 4.87 29.44 17.51 51.09 38.06 72.26 c 7.89 7.89 18.96 14.33 30.42 11.23 c 9.22 -2.49 17.55 -10.61 25.34 -23.18 c 3.45 -5.56 6.05 -11.7 7.62 -18.06 c 1.53 -6.19 2.09 -12.62 1.51 -18.97 c -0.15 -1.67 -1.63 -2.9 -3.29 -2.75 c -1.67 0.15 -2.9 1.63 -2.75 3.29 c 0.52 5.65 0.01 11.4 -1.36 16.97 c -1.42 5.76 -3.77 11.3 -6.88 16.32 c -6.97 11.25 -14.15 18.44 -21.75 20.5 c -7.3 1.97 -15.35 -0.88 -24.45 -9.56 c -25.83 -27.11 4.84 -58.4 22.73 -80.43 c 21.79 -26.84 46.89 -57.75 52.41 -95.81 c 0.42 -2.02 -1.27 -3.9 -3.35 -3.64 c -28.29 3.51 -52.85 17.61 -70.02 37.94 c -17.17 20.33 -26.95 46.9 -25.68 75.38 c 0.07 1.67 1.49 2.97 3.16 2.9 c 1.67 -0.07 2.97 -1.49 2.9 -3.16 c -1.2 -26.89 8.04 -51.99 24.26 -71.19 c 15.39 -18.22 37.07 -31.14 62.08 -35.24 c -6.39 34.7 -29.93 63.7 -50.47 89 c -19.46 23.97 -36.34 44.77 -34.71 64.58 c -10.2 -14.94 -16.87 -31.79 -19.78 -49.36 c -3.31 -20.02 -1.4 -42.11 5.17 -61.35 c 10.9 -30.27 34.08 -49.71 58.68 -59.58 c 20.39 -8.19 52.15 -12.69 71.49 0.25 c 8.02 5.37 12.5 13.48 11.25 24.09 c -3.95 -3.44 -8.29 -6.5 -12.97 -9.1 c -1.97 -1.1 -4.38 0.27 -4.5 2.47 c -0.91 15.33 -2.65 30.68 -6.65 45.07 c -3.94 14.2 -10.07 27.49 -19.77 38.91 c -0.45 0.48 -0.67 0.99 -0.79 1.63 c -2.29 15.18 -1.44 27.8 1.75 37.26 c 2.71 8.03 9.81 18.55 19.13 19.7 c 1.45 0.07 2.74 -0.86 3.11 -2.27 c 0.42 -1.62 -0.55 -3.28 -2.18 -3.7 c -6.36 -1.66 -11.41 -7.07 -14.31 -15.66 c -2.69 -7.96 -3.53 -18.55 -1.93 -31.37 c 10.79 1.35 21.63 -2.35 29.34 -10.04 c 1.19 -1.18 1.19 -3.1 0.01 -4.29 c -1.18 -1.19 -3.1 -1.19 -4.29 -0.01 c -5.8 5.78 -13.75 8.87 -21.92 8.52 c 4.86 -6.44 8.76 -13.35 11.9 -20.58 c 3.96 -0.24 7.9 -0.07 11.83 0.5 c 1.66 0.24 3.2 -0.92 3.44 -2.58 c 0.24 -1.66 -0.92 -3.2 -2.58 -3.44 c -3.37 -0.48 -6.81 -0.7 -10.22 -0.64 c 1.24 -3.38 2.34 -6.83 3.31 -10.32 c 3.69 -13.31 5.52 -27.31 6.53 -41.33 c 12.81 8.35 22.55 20.67 27.77 35.02 c -5.8 2.32 -9.53 5.66 -11.57 9.61 c -6.8 13.19 6.31 28.02 13.73 37.34 c 2.04 2.57 4.2 5.27 6.34 8.08 c -4.73 2.67 -11.06 4.72 -16.32 5.88 c -1.63 0.36 -2.67 1.98 -2.31 3.61 c 0.36 1.64 1.98 2.67 3.61 2.31 c 6.49 -1.43 15.99 -4.53 21.25 -8.66 c 1.29 -1.01 1.54 -2.87 0.56 -4.19 c -2.93 -3.97 -5.75 -7.51 -8.38 -10.82 c -3.97 -4.98 -7.53 -9.45 -10.09 -13.62 c 1.54 -0.26 3.05 -0.68 4.51 -1.24 c 1.94 -0.74 3.79 -1.73 5.46 -2.94 c 3.51 4.52 6.56 9.44 9.03 14.6 c 7.22 15.04 5.86 33.23 5.08 49.65 c -0.26 5.51 -0.67 10 -1.23 13.47 c -2.41 14.93 -33.73 15.71 -45.84 14.64 c -6.85 -0.61 -13.65 -2.04 -20.25 -4.29 c -1.59 -0.54 -3.31 0.31 -3.85 1.9 c -0.54 1.59 0.31 3.31 1.9 3.85 c 7.03 2.4 14.39 3.95 21.79 4.59 c -7.39 5.31 -12.69 13.26 -15.9 22.37 c -4.81 13.7 -4.85 29.87 -0.26 43.65 c 0.53 1.59 2.25 2.45 3.84 1.91 c 1.59 -0.53 2.45 -2.25 1.91 -3.84 c -4.17 -12.49 -4.13 -27.31 0.23 -39.72 c 3.72 -10.57 10.81 -19.9 21.76 -23.56 c 3.75 -1.25 7.2 -0.98 11 -1.6 c 13.03 -1.96 27.1 -3.13 29.66 -18.96 c 0.6 -3.7 1.03 -8.42 1.3 -14.14 c 0.84 -17.57 2.07 -36.45 -5.67 -52.55 c -3 -6.25 -6.72 -12.1 -11.1 -17.47 c -1 -18.19 -8.42 -35.39 -20.94 -48.57 c 3.53 -15.24 -2.1 -26.78 -13.16 -34.18 c -21.14 -14.14 -54.75 -9.83 -77.12 -0.85 c -6.57 2.64 -13.05 5.92 -19.25 9.87 c 33.17 -28.65 78.84 -38.13 120.78 -24.84 C 233.93 60.3 257.66 79.33 273.13 103.6 z M 206.07 135.55 c 1.21 4.52 1.98 9.19 2.27 13.96 c -1.43 1.2 -3.12 2.17 -4.93 2.86 c -1.71 0.65 -3.5 1.05 -5.26 1.16 c -1.38 -3.65 -1.93 -7.79 -0.08 -11.39 C 199.4 139.53 201.98 137.26 206.07 135.55 z M 318.03 192.35 c -8.97 -2.87 -18.47 2.61 -20.47 11.82 C 306.54 207.04 316.03 201.56 318.03 192.35 z M 278.4 131.11 c 5.41 0.74 10.27 3.26 13.96 6.96 c 5.38 5.38 7.18 11.38 7.18 18.8 c 0.18 -0.19 0.36 -0.38 0.55 -0.57 c 3.69 -3.69 8.55 -6.21 13.96 -6.95 c 0 -5.83 -0.68 -16.01 0.16 -21.33 c -6.02 2.16 -12.34 2.75 -20.31 -5.04 c -6.06 -6.05 -11.59 -3.61 -18.44 -1.11 C 277.86 124.75 278.4 127.5 278.4 131.11 z M 292.91 169.95 c 0 -9.38 1.86 -20.1 -5.24 -27.19 c -2.48 -2.48 -5.69 -4.25 -9.27 -4.93 v 14.61 C 278.4 160.98 284.56 168.36 292.91 169.95 z M 313.66 156.15 c -6.84 1.46 -12.26 6.89 -13.72 13.72 C 306.77 168.41 312.19 162.99 313.66 156.15 z" stroke-linecap="round" />
</g>
<g transform="matrix(0.94 0 0 1.16 272.41 40.43)"  >
<path style="stroke: rgb(255,255,255); stroke-opacity: 0; stroke-width: 1; stroke-dasharray: none; stroke-linecap: butt; stroke-dashoffset: 0; stroke-linejoin: miter; stroke-miterlimit: 4; fill: rgb(255,255,255); fill-rule: nonzero; opacity: 1;"  transform=" translate(-0.43, 11.93)" d="M -157.508 -11.184 L -150.02 -9.072 Q -150.932 -5.76 -152.948 -3.624 Q -154.964 -1.488 -157.748 -0.504 Q -160.532 0.48 -163.892 0.48 L -163.892 0.48 Q -168.692 0.48 -172.196 -1.464 Q -175.7 -3.408 -177.572 -7.056 Q -179.444 -10.704 -179.444 -15.84 L -179.444 -15.84 Q -179.444 -20.976 -177.572 -24.624 Q -175.7 -28.272 -172.196 -30.216 Q -168.692 -32.16 -163.94 -32.16 L -163.94 -32.16 Q -160.628 -32.16 -157.844 -31.224 Q -155.06 -30.288 -153.14 -28.368 Q -151.22 -26.448 -150.404 -23.424 L -150.404 -23.424 L -157.652 -20.496 Q -158.324 -23.472 -159.836 -24.576 Q -161.348 -25.68 -163.652 -25.68 L -163.652 -25.68 Q -165.908 -25.68 -167.564 -24.576 Q -169.22 -23.472 -170.108 -21.288 Q -170.996 -19.104 -170.996 -15.84 L -170.996 -15.84 Q -170.996 -12.624 -170.18 -10.416 Q -169.364 -8.208 -167.708 -7.104 Q -166.052 -6 -163.604 -6 L -163.604 -6 Q -161.3 -6 -159.692 -7.272 Q -158.084 -8.544 -157.508 -11.184 L -157.508 -11.184 Z M -129.564 -24.48 L -129.564 -24.48 Q -125.772 -24.48 -122.916 -23.016 Q -120.06 -21.552 -118.452 -18.744 Q -116.844 -15.936 -116.844 -12 L -116.844 -12 Q -116.844 -8.064 -118.452 -5.256 Q -120.06 -2.448 -122.916 -0.984 Q -125.772 0.48 -129.564 0.48 L -129.564 0.48 Q -133.26 0.48 -136.14 -0.984 Q -139.02 -2.448 -140.628 -5.256 Q -142.236 -8.064 -142.236 -12 L -142.236 -12 Q -142.236 -15.936 -140.628 -18.744 Q -139.02 -21.552 -136.14 -23.016 Q -133.26 -24.48 -129.564 -24.48 Z M -129.564 -18.672 L -129.564 -18.672 Q -130.956 -18.672 -131.964 -18 Q -132.972 -17.328 -133.5 -15.84 Q -134.028 -14.352 -134.028 -12 L -134.028 -12 Q -134.028 -9.648 -133.5 -8.184 Q -132.972 -6.72 -131.964 -6.024 Q -130.956 -5.328 -129.564 -5.328 L -129.564 -5.328 Q -128.124 -5.328 -127.116 -6.024 Q -126.108 -6.72 -125.58 -8.184 Q -125.052 -9.648 -125.052 -12 L -125.052 -12 Q -125.052 -14.352 -125.58 -15.84 Q -126.108 -17.328 -127.116 -18 Q -128.124 -18.672 -129.564 -18.672 Z M -86.932 0 L -108.484 0 L -108.484 -4.992 L -98.932 -15.84 L -96.388 -18.384 L -100.18 -18.288 L -108.388 -18.288 L -108.388 -24 L -87.364 -24 L -87.364 -19.008 L -96.772 -8.256 L -99.412 -5.616 L -95.188 -5.712 L -86.932 -5.712 L -86.932 0 Z M -61.436 -24 L -53.324 -24 L -62.06 0 Q -63.404 3.792 -64.988 6.048 Q -66.572 8.304 -68.732 9.312 Q -70.892 10.32 -73.916 10.32 L -73.916 10.32 Q -75.932 10.32 -77.612 9.888 Q -79.292 9.456 -80.54 8.688 L -80.54 8.688 L -78.908 3.168 Q -78.044 3.792 -77.084 4.056 Q -76.124 4.32 -74.636 4.32 L -74.636 4.32 Q -73.244 4.32 -72.356 3.84 Q -71.468 3.36 -70.94 2.016 L -70.94 2.016 L -70.316 0.528 L -73.1 -6 L -80.3 -24 L -71.324 -24 L -67.628 -10.32 L -66.476 -5.232 L -65.132 -10.512 L -61.436 -24 Z M -5.548 -11.184 L 1.94 -9.072 Q 1.028 -5.76 -0.988 -3.624 Q -3.004 -1.488 -5.788 -0.504 Q -8.572 0.48 -11.932 0.48 L -11.932 0.48 Q -16.732 0.48 -20.236 -1.464 Q -23.74 -3.408 -25.612 -7.056 Q -27.484 -10.704 -27.484 -15.84 L -27.484 -15.84 Q -27.484 -20.976 -25.612 -24.624 Q -23.74 -28.272 -20.236 -30.216 Q -16.732 -32.16 -11.98 -32.16 L -11.98 -32.16 Q -8.668 -32.16 -5.884 -31.224 Q -3.1 -30.288 -1.18 -28.368 Q 0.74 -26.448 1.556 -23.424 L 1.556 -23.424 L -5.692 -20.496 Q -6.364 -23.472 -7.876 -24.576 Q -9.388 -25.68 -11.692 -25.68 L -11.692 -25.68 Q -13.948 -25.68 -15.604 -24.576 Q -17.26 -23.472 -18.148 -21.288 Q -19.036 -19.104 -19.036 -15.84 L -19.036 -15.84 Q -19.036 -12.624 -18.22 -10.416 Q -17.404 -8.208 -15.748 -7.104 Q -14.092 -6 -11.644 -6 L -11.644 -6 Q -9.34 -6 -7.732 -7.272 Q -6.124 -8.544 -5.548 -11.184 L -5.548 -11.184 Z M 10.876 -34.176 L 19.036 -34.176 L 19.036 -8.16 Q 19.036 -6.576 19.564 -5.904 Q 20.092 -5.232 21.34 -5.232 L 21.34 -5.232 Q 22.06 -5.232 22.54 -5.328 Q 23.02 -5.424 23.692 -5.616 L 23.692 -5.616 L 23.164 -0.72 Q 22.3 -0.192 20.908 0.144 Q 19.516 0.48 18.172 0.48 L 18.172 0.48 Q 14.332 0.48 12.604 -1.296 Q 10.876 -3.072 10.876 -7.104 L 10.876 -7.104 L 10.876 -34.176 Z M 43.092 -24.48 L 43.092 -24.48 Q 46.884 -24.48 49.74 -23.016 Q 52.596 -21.552 54.204 -18.744 Q 55.812 -15.936 55.812 -12 L 55.812 -12 Q 55.812 -8.064 54.204 -5.256 Q 52.596 -2.448 49.74 -0.984 Q 46.884 0.48 43.092 0.48 L 43.092 0.48 Q 39.396 0.48 36.516 -0.984 Q 33.636 -2.448 32.028 -5.256 Q 30.42 -8.064 30.42 -12 L 30.42 -12 Q 30.42 -15.936 32.028 -18.744 Q 33.636 -21.552 36.516 -23.016 Q 39.396 -24.48 43.092 -24.48 Z M 43.092 -18.672 L 43.092 -18.672 Q 41.7 -18.672 40.692 -18 Q 39.684 -17.328 39.156 -15.84 Q 38.628 -14.352 38.628 -12 L 38.628 -12 Q 38.628 -9.648 39.156 -8.184 Q 39.684 -6.72 40.692 -6.024 Q 41.7 -5.328 43.092 -5.328 L 43.092 -5.328 Q 44.532 -5.328 45.54 -6.024 Q 46.548 -6.72 47.076 -8.184 Q 47.604 -9.648 47.604 -12 L 47.604 -12 Q 47.604 -14.352 47.076 -15.84 Q 46.548 -17.328 45.54 -18 Q 44.532 -18.672 43.092 -18.672 Z M 67.292 -29.376 L 75.452 -31.632 L 75.452 -8.544 Q 75.452 -6.816 76.292 -6.072 Q 77.132 -5.328 78.62 -5.328 L 78.62 -5.328 Q 79.772 -5.328 80.612 -5.592 Q 81.452 -5.856 82.124 -6.384 L 82.124 -6.384 L 82.988 -1.344 Q 81.788 -0.48 79.964 0 Q 78.14 0.48 76.22 0.48 L 76.22 0.48 Q 73.484 0.48 71.492 -0.288 Q 69.5 -1.056 68.42 -2.736 Q 67.34 -4.416 67.292 -7.2 L 67.292 -7.2 L 67.292 -29.376 Z M 63.164 -24 L 82.604 -24 L 82.604 -18.192 L 63.164 -18.192 L 63.164 -24 Z M 99.556 0 L 91.396 0 L 91.396 -34.176 L 99.556 -34.176 L 99.556 -19.632 Q 100.612 -22.032 102.58 -23.256 Q 104.548 -24.48 107.14 -24.48 L 107.14 -24.48 Q 109.636 -24.48 111.484 -23.52 Q 113.332 -22.56 114.388 -20.688 Q 115.444 -18.816 115.444 -15.984 L 115.444 -15.984 L 115.444 0 L 107.284 0 L 107.284 -13.728 Q 107.284 -16.32 106.348 -17.304 Q 105.412 -18.288 103.876 -18.288 L 103.876 -18.288 Q 102.724 -18.288 101.716 -17.712 Q 100.708 -17.136 100.132 -15.888 Q 99.556 -14.64 99.556 -12.624 L 99.556 -12.624 L 99.556 0 Z M 137.868 0.48 L 137.868 0.48 Q 133.884 0.48 130.98 -1.008 Q 128.076 -2.496 126.492 -5.28 Q 124.908 -8.064 124.908 -12 L 124.908 -12 Q 124.908 -15.936 126.492 -18.72 Q 128.076 -21.504 130.932 -22.992 Q 133.788 -24.48 137.484 -24.48 L 137.484 -24.48 Q 141.276 -24.48 143.94 -23.016 Q 146.604 -21.552 147.996 -18.984 Q 149.388 -16.416 149.388 -13.104 L 149.388 -13.104 Q 149.388 -12.24 149.34 -11.376 Q 149.292 -10.512 149.196 -9.936 L 149.196 -9.936 L 130.188 -9.936 L 130.188 -14.304 L 145.596 -14.304 L 141.708 -12.816 Q 141.708 -15.696 140.676 -17.232 Q 139.644 -18.768 137.484 -18.768 L 137.484 -18.768 Q 135.948 -18.768 134.868 -18.048 Q 133.788 -17.328 133.236 -15.792 Q 132.684 -14.256 132.684 -11.856 L 132.684 -11.856 Q 132.684 -9.504 133.308 -8.04 Q 133.932 -6.576 135.084 -5.928 Q 136.236 -5.28 137.868 -5.28 L 137.868 -5.28 Q 139.692 -5.28 140.772 -6 Q 141.852 -6.72 142.38 -8.016 L 142.38 -8.016 L 148.908 -5.856 Q 148.236 -3.792 146.58 -2.376 Q 144.924 -0.96 142.644 -0.24 Q 140.364 0.48 137.868 0.48 Z M 169.028 0.48 L 169.028 0.48 Q 165.428 0.48 162.332 -0.696 Q 159.236 -1.872 157.22 -4.08 L 157.22 -4.08 L 161.06 -8.592 Q 162.26 -7.056 164.252 -6.024 Q 166.244 -4.992 168.692 -4.992 L 168.692 -4.992 Q 170.18 -4.992 171.14 -5.424 Q 172.1 -5.856 172.1 -6.768 L 172.1 -6.768 Q 172.1 -7.44 171.62 -7.848 Q 171.14 -8.256 169.7 -8.544 L 169.7 -8.544 L 166.34 -9.216 Q 161.828 -10.128 159.932 -11.928 Q 158.036 -13.728 158.036 -16.656 L 158.036 -16.656 Q 158.036 -18.624 159.236 -20.424 Q 160.436 -22.224 162.932 -23.352 Q 165.428 -24.48 169.316 -24.48 L 169.316 -24.48 Q 172.964 -24.48 175.748 -23.424 Q 178.532 -22.368 180.164 -20.352 L 180.164 -20.352 L 176.276 -15.936 Q 175.124 -17.376 173.3 -18.192 Q 171.476 -19.008 169.652 -19.008 L 169.652 -19.008 Q 168.5 -19.008 167.708 -18.792 Q 166.916 -18.576 166.532 -18.192 Q 166.148 -17.808 166.148 -17.232 L 166.148 -17.232 Q 166.148 -16.608 166.748 -16.152 Q 167.348 -15.696 168.98 -15.36 L 168.98 -15.36 L 173.348 -14.496 Q 177.044 -13.824 178.676 -12.048 Q 180.308 -10.272 180.308 -7.776 L 180.308 -7.776 Q 180.308 -5.424 179.06 -3.552 Q 177.812 -1.68 175.316 -0.6 Q 172.82 0.48 169.028 0.48 Z" stroke-linecap="round" />
</g>
</svg>