<?xml version="1.0" encoding="UTF-8" standalone="no" ?>
<!DOCTYPE svg PUBLIC "-//W3C//DTD SVG 1.1//EN" "http://www.w3.org/Graphics/SVG/1.1/DTD/svg11.dtd">
<svg xmlns="http://www.w3.org/2000/svg" xmlns:xlink="http://www.w3.org/1999/xlink" version="1.1" width="85" height="82" viewBox="0 0 85 82" xml:space="preserve">
<defs>
</defs>
<g transform="matrix(0.29 0 0 0.29 42.61 41.12)"  >
<path style="stroke: none; stroke-width: 1; stroke-dasharray: none; stroke-linecap: butt; stroke-dashoffset: 0; stroke-linejoin: miter; stroke-miterlimit: 4; fill: rgb(255,255,255); fill-rule: evenodd; opacity: 1;"  transform=" translate(-180.32, -180.34)" d="m 275.97 181.36 c 8.56 1.86 13.66 10.69 10.99 19.03 c -8.56 -1.86 -13.66 -10.69 -10.99 -19.03 m 22.92 -4.61 c 12.34 -1.35 21.79 -11.88 21.79 -24.31 v -22.43 c 0 -3.35 2.71 -6.06 6.06 -6.06 v -6.63 c -10.9 0 -17.85 11.06 -28.18 0.97 c -13.05 -13.06 -21.15 -0.97 -32.86 -0.97 v 6.63 c 3.35 0 6.06 2.71 6.06 6.06 v 22.43 c 0 12.15 9.04 22.52 21.04 24.21 c -0.19 4.48 -0.61 8.98 -1.29 13.5 c -8.39 56.11 -53.23 99.85 -109.56 106.71 c -1.67 0.2 -2.86 1.71 -2.66 3.38 s 1.71 2.86 3.38 2.66 c 59.05 -7.19 106.07 -53.05 114.86 -111.87 c 0.72 -4.77 1.17 -9.54 1.36 -14.28 z m -79.4 29.17 c 3.15 -5.78 -5.17 -10.17 -7.89 -3.38 c -6.04 -5.31 -8.97 8.97 -23.46 15.4 c 10.31 2.18 25.22 0.8 29.98 -3.21 c 2.68 -2.09 3.26 -5.42 1.24 -7.34 c -3 2.05 -9.09 6.07 -23.6 8.84 c 14.27 -2.81 22.21 -8.56 23.73 -10.31 z m 53.64 -102.32 c 1.98 -0.72 3.94 -1.42 5.95 -1.95 c -16.19 -26.07 -41.39 -46.54 -72.5 -56.39 c -61.99 -19.64 -129.13 8.71 -158.31 66.83 c -2.32 4.62 -4.35 9.3 -6.1 14.04 c -8.16 20.71 -10.16 45.61 -6.55 67.45 c 4.87 29.44 17.51 51.09 38.06 72.26 c 7.89 7.89 18.96 14.33 30.42 11.23 c 9.22 -2.49 17.55 -10.61 25.34 -23.18 c 3.45 -5.56 6.05 -11.7 7.62 -18.06 c 1.53 -6.19 2.09 -12.62 1.51 -18.97 c -0.15 -1.67 -1.63 -2.9 -3.29 -2.75 c -1.67 0.15 -2.9 1.63 -2.75 3.29 c 0.52 5.65 0.01 11.4 -1.36 16.97 c -1.42 5.76 -3.77 11.3 -6.88 16.32 c -6.97 11.25 -14.15 18.44 -21.75 20.5 c -7.3 1.97 -15.35 -0.88 -24.45 -9.56 c -25.83 -27.11 4.84 -58.4 22.73 -80.43 c 21.79 -26.84 46.89 -57.75 52.41 -95.81 c 0.42 -2.02 -1.27 -3.9 -3.35 -3.64 c -28.29 3.51 -52.85 17.61 -70.02 37.94 s -26.95 46.9 -25.68 75.38 c 0.07 1.67 1.49 2.97 3.16 2.9 s 2.97 -1.49 2.9 -3.16 c -1.2 -26.89 8.04 -51.99 24.26 -71.19 c 15.39 -18.22 37.07 -31.14 62.08 -35.24 c -6.39 34.7 -29.93 63.7 -50.47 89 c -19.46 23.97 -36.34 44.77 -34.71 64.58 c -10.2 -14.94 -16.87 -31.79 -19.78 -49.36 c -3.31 -20.02 -1.4 -42.11 5.17 -61.35 c 10.9 -30.27 34.08 -49.71 58.68 -59.58 c 20.39 -8.19 52.15 -12.69 71.49 0.25 c 8.02 5.37 12.5 13.48 11.25 24.09 c -3.95 -3.44 -8.29 -6.5 -12.97 -9.1 c -1.97 -1.1 -4.38 0.27 -4.5 2.47 c -0.91 15.33 -2.65 30.68 -6.65 45.07 c -3.94 14.2 -10.07 27.49 -19.77 38.91 c -0.45 0.48 -0.67 0.99 -0.79 1.63 c -2.29 15.18 -1.44 27.8 1.75 37.26 c 2.71 8.03 9.81 18.55 19.13 19.7 c 1.45 0.07 2.74 -0.86 3.11 -2.27 c 0.42 -1.62 -0.55 -3.28 -2.18 -3.7 c -6.36 -1.66 -11.41 -7.07 -14.31 -15.66 c -2.69 -7.96 -3.53 -18.55 -1.93 -31.37 c 10.79 1.35 21.63 -2.35 29.34 -10.04 c 1.19 -1.18 1.19 -3.1 0.01 -4.29 s -3.1 -1.19 -4.29 -0.01 c -5.8 5.78 -13.75 8.87 -21.92 8.52 c 4.86 -6.44 8.76 -13.35 11.9 -20.58 c 3.96 -0.24 7.9 -0.07 11.83 0.5 c 1.66 0.24 3.2 -0.92 3.44 -2.58 s -0.92 -3.2 -2.58 -3.44 c -3.37 -0.48 -6.81 -0.7 -10.22 -0.64 c 1.24 -3.38 2.34 -6.83 3.31 -10.32 c 3.69 -13.31 5.52 -27.31 6.53 -41.33 c 12.81 8.35 22.55 20.67 27.77 35.02 c -5.8 2.32 -9.53 5.66 -11.57 9.61 c -6.8 13.19 6.31 28.02 13.73 37.34 c 2.04 2.57 4.2 5.27 6.34 8.08 c -4.73 2.67 -11.06 4.72 -16.32 5.88 c -1.63 0.36 -2.67 1.98 -2.31 3.61 c 0.36 1.64 1.98 2.67 3.61 2.31 c 6.49 -1.43 15.99 -4.53 21.25 -8.66 c 1.29 -1.01 1.54 -2.87 0.56 -4.19 c -2.93 -3.97 -5.75 -7.51 -8.38 -10.82 c -3.97 -4.98 -7.53 -9.45 -10.09 -13.62 c 1.54 -0.26 3.05 -0.68 4.51 -1.24 c 1.94 -0.74 3.79 -1.73 5.46 -2.94 c 3.51 4.52 6.56 9.44 9.03 14.6 c 7.22 15.04 5.86 33.23 5.08 49.65 c -0.26 5.51 -0.67 10 -1.23 13.47 c -2.41 14.93 -33.73 15.71 -45.84 14.64 c -6.85 -0.61 -13.65 -2.04 -20.25 -4.29 c -1.59 -0.54 -3.31 0.31 -3.85 1.9 s 0.31 3.31 1.9 3.85 c 7.03 2.4 14.39 3.95 21.79 4.59 c -7.39 5.31 -12.69 13.26 -15.9 22.37 c -4.81 13.7 -4.85 29.87 -0.26 43.65 c 0.53 1.59 2.25 2.45 3.84 1.91 c 1.59 -0.53 2.45 -2.25 1.91 -3.84 c -4.17 -12.49 -4.13 -27.31 0.23 -39.72 c 3.72 -10.57 10.81 -19.9 21.76 -23.56 c 3.75 -1.25 7.2 -0.98 11 -1.6 c 13.03 -1.96 27.1 -3.13 29.66 -18.96 c 0.6 -3.7 1.03 -8.42 1.3 -14.14 c 0.84 -17.57 2.07 -36.45 -5.67 -52.55 c -3 -6.25 -6.72 -12.1 -11.1 -17.47 c -1 -18.19 -8.42 -35.39 -20.94 -48.57 c 3.53 -15.24 -2.1 -26.78 -13.16 -34.18 c -21.14 -14.14 -54.75 -9.83 -77.12 -0.85 c -6.57 2.64 -13.05 5.92 -19.25 9.87 c 33.17 -28.65 78.84 -38.13 120.78 -24.84 c 29.21 9.25 52.94 28.28 68.41 52.55 z m -67.06 31.95 c 1.21 4.52 1.98 9.19 2.27 13.96 c -1.43 1.2 -3.12 2.17 -4.93 2.86 c -1.71 0.65 -3.5 1.05 -5.26 1.16 c -1.38 -3.65 -1.93 -7.79 -0.08 -11.39 c 1.33 -2.61 3.91 -4.88 8 -6.59 z m 111.96 56.8 c -8.97 -2.87 -18.47 2.61 -20.47 11.82 c 8.98 2.87 18.47 -2.61 20.47 -11.82 z m -39.63 -61.24 c 5.41 0.74 10.27 3.26 13.96 6.96 c 5.38 5.38 7.18 11.38 7.18 18.8 c 0.18 -0.19 0.36 -0.38 0.55 -0.57 c 3.69 -3.69 8.55 -6.21 13.96 -6.95 c 0 -5.83 -0.68 -16.01 0.16 -21.33 c -6.02 2.16 -12.34 2.75 -20.31 -5.04 c -6.06 -6.05 -11.59 -3.61 -18.44 -1.11 c 2.4 2.88 2.94 5.63 2.94 9.24 z m 14.51 38.84 c 0 -9.38 1.86 -20.1 -5.24 -27.19 c -2.48 -2.48 -5.69 -4.25 -9.27 -4.93 v 14.61 c 0 8.54 6.16 15.92 14.51 17.51 z m 20.75 -13.8 c -6.84 1.46 -12.26 6.89 -13.72 13.72 c 6.83 -1.46 12.25 -6.88 13.72 -13.72 z" stroke-linecap="round" />
</g>
</svg>